<svg width="120" height="28" viewBox="0 0 120 28" fill="none" xmlns="http://www.w3.org/2000/svg">
  <rect width="28" height="28" rx="8" fill="#2563eb"/>
  <path d="M8 18.4V9.6H15.2C18.4 9.6 20 11 20 13.2C20 15.4 18.4 16.8 15.2 16.8H11.2V18.4H8ZM11.2 14.4H14.8C15.9 14.4 16.6 14 16.6 13.2C16.6 12.4 15.9 12 14.8 12H11.2V14.4Z" fill="white"/>
  <path d="M35.8 20V8H43.3C45.6 8 47.3 8.5 48.4 9.6C49.5 10.7 50 12 50 13.6C50 15.2 49.5 16.5 48.4 17.6C47.3 18.7 45.6 19.2 43.3 19.2H39V20H35.8ZM39 16.5H43.1C44.3 16.5 45.2 16.3 45.8 15.8C46.4 15.3 46.7 14.6 46.7 13.6C46.7 12.6 46.4 11.9 45.8 11.4C45.2 10.9 44.3 10.7 43.1 10.7H39V16.5Z" fill="#0f172a"/>
  <path d="M53.2 20V8H56.4V20H53.2Z" fill="#0f172a"/>
  <path d="M59.4 20V8H62.8L69.4 15.3V8H72.6V20H69.5L62.6 12.4V20H59.4Z" fill="#0f172a"/>
  <path d="M80.2 20.3C78.3 20.3 76.7 19.7 75.4 18.5C74.1 17.3 73.4 15.8 73.4 14C73.4 12.2 74.1 10.7 75.4 9.5C76.7 8.3 78.3 7.7 80.2 7.7C81.4 7.7 82.5 8 83.5 8.5C84.5 9 85.3 9.7 85.9 10.7L83.3 12.2C83 11.7 82.5 11.3 81.9 11C81.4 10.7 80.8 10.6 80.2 10.6C79.2 10.6 78.3 10.9 77.7 11.5C77 12.1 76.7 12.9 76.7 14C76.7 15.1 77 15.9 77.7 16.5C78.3 17.1 79.2 17.4 80.2 17.4C80.8 17.4 81.4 17.3 82 17C82.5 16.7 83 16.3 83.4 15.8L86 17.3C85.4 18.3 84.6 19 83.6 19.5C82.6 20 81.4 20.3 80.2 20.3Z" fill="#0f172a"/>
  <path d="M87.8 20V8H97.6V10.7H91V12.7H97.2V15.3H91V17.3H97.8V20H87.8Z" fill="#0f172a"/>
  <path d="M100 20V8H103.2V17.2H109.1V20H100Z" fill="#0f172a"/>
</svg>
